<svg width="32" height="34" viewBox="0 0 32 34" fill="none" xmlns="http://www.w3.org/2000/svg">
<g clip-path="url(#clip0_1_1775)" filter="url(#filter0_d_1_1775)">
<path d="M8.23803 12.262H5.18512C4.76363 12.262 4.42188 12.6037 4.42188 13.0252V25.2366C4.42188 25.6581 4.76358 25.9999 5.18512 25.9999H8.23798C8.65946 25.9999 9.00122 25.6582 9.00122 25.2366V13.0252C9.00122 12.6037 8.65956 12.262 8.23803 12.262Z" fill="white"/>
<path d="M27.3049 14.2852C27.1703 13.1012 26.0643 12.2621 24.8727 12.2621H18.9225C19.4281 11.3566 19.6996 8.79556 19.6875 7.74937C19.6676 6.01763 18.2335 4.62988 16.5017 4.62988H15.8719C15.45 4.62988 15.1086 4.97123 15.1086 5.39312C15.1086 7.15802 14.4214 10.3436 13.1253 11.6398C12.253 12.5121 11.5072 12.8282 10.5293 13.317V24.769C12.0265 25.2681 13.9274 26.0001 16.8248 26.0001H21.8174C23.4625 26.0001 24.7437 24.4765 24.1062 22.8667C25.0774 22.6021 25.7937 21.7114 25.7937 20.6575C25.7937 20.3601 25.7363 20.0754 25.6327 19.8138C27.2693 19.3679 27.8717 17.3471 26.7358 16.0782C27.1531 15.612 27.3833 14.9743 27.3049 14.2852Z" fill="white"/>
</g>
<defs>
<filter id="filter0_d_1_1775" x="-1.12891" y="0" width="34" height="34" filterUnits="userSpaceOnUse" color-interpolation-filters="sRGB">
<feFlood flood-opacity="0" result="BackgroundImageFix"/>
<feColorMatrix in="SourceAlpha" type="matrix" values="0 0 0 0 0 0 0 0 0 0 0 0 0 0 0 0 0 0 127 0" result="hardAlpha"/>
<feOffset dy="4"/>
<feGaussianBlur stdDeviation="2"/>
<feComposite in2="hardAlpha" operator="out"/>
<feColorMatrix type="matrix" values="0 0 0 0 0 0 0 0 0 0 0 0 0 0 0 0 0 0 0.25 0"/>
<feBlend mode="normal" in2="BackgroundImageFix" result="effect1_dropShadow_1_1775"/>
<feBlend mode="normal" in="SourceGraphic" in2="effect1_dropShadow_1_1775" result="shape"/>
</filter>
<clipPath id="clip0_1_1775">
<rect width="26" height="26" fill="white" transform="translate(2.87109)"/>
</clipPath>
</defs>
</svg>
